<mxfile host="app.diagrams.net" modified="2023-10-11T19:34:29.942Z" agent="Mozilla/5.0 (Windows NT 10.0; Win64; x64) AppleWebKit/537.36 (KHTML, like Gecko) Chrome/117.0.0.0 Safari/537.36" version="22.0.4" etag="ZOulKfVp-gDbX5pO890D" type="github">
  <diagram name="Page-1" id="eecayEAnJAfGpM0Y9hFT">
    <mxGraphModel>
      <root>
        <mxCell id="0" />
        <mxCell id="1" parent="0" />
      </root>
    </mxGraphModel>
  </diagram>
</mxfile>
